<svg version="1.1" id="Layer_1" xmlns="http://www.w3.org/2000/svg" xmlns:xlink="http://www.w3.org/1999/xlink" x="0px" y="0px"
	 width="100%" viewBox="0 0 500 500" enable-background="new 0 0 500 500" xml:space="preserve">
<path fill="#000000" opacity="1.000000" stroke="none" 
	d="
M276.000000,501.000000 
	C184.000015,501.000000 92.500046,501.000000 1.000049,501.000000 
	C1.000033,334.333405 1.000033,167.666794 1.000016,1.000139 
	C167.666565,1.000092 334.333130,1.000092 500.999756,1.000046 
	C500.999847,167.666519 500.999847,334.333038 500.999939,500.999786 
	C426.166656,501.000000 351.333344,501.000000 276.000000,501.000000 
M318.007782,166.997375 
	C318.007782,166.997375 318.027252,167.054703 318.588348,166.848862 
	C319.081146,166.243286 319.573975,165.637726 320.001617,165.017242 
	C320.001617,165.017242 320.006439,165.083939 320.520569,164.925186 
	C320.707123,164.631317 320.893677,164.337463 321.712158,163.780640 
	C331.119019,154.283249 341.031830,145.224960 349.774628,135.151276 
	C356.929474,126.907288 362.576721,117.368103 369.158569,108.603065 
	C370.563751,106.731758 372.599182,104.721779 375.763184,107.192162 
	C381.928833,112.006073 388.419952,116.403099 395.015167,121.502457 
	C395.337189,121.688316 395.659210,121.874176 395.976471,121.998367 
	C395.976471,121.998367 395.946228,122.052391 396.180206,122.751602 
	C397.220154,123.560799 398.260132,124.370003 400.003265,125.726357 
	C400.003265,111.434914 400.029785,98.300171 399.952667,85.166023 
	C399.946503,84.117554 399.223846,83.073280 398.973846,81.273186 
	C398.926971,80.510666 398.880096,79.748146 398.981201,78.070038 
	C398.653778,70.861435 398.154968,63.655575 398.039886,56.443584 
	C397.876251,46.188320 398.060455,35.927723 397.931366,25.671478 
	C397.908417,23.846859 397.084991,22.032312 396.631226,20.213114 
	C394.724609,21.122942 392.817963,22.032770 390.178925,23.013710 
	C361.890045,37.635765 333.376038,51.841640 305.610382,67.430893 
	C305.722443,67.939873 305.834503,68.448853 305.946564,68.957825 
	C314.909882,72.916321 323.873230,76.874809 333.632812,81.184937 
	C331.440430,84.461586 329.284241,87.807732 327.005310,91.068077 
	C318.847839,102.738441 310.630463,114.366982 302.483948,126.044937 
	C301.180115,127.914009 300.122925,129.955139 298.389862,132.121506 
	C297.895905,132.730438 297.401947,133.339371 296.308716,134.199570 
	C295.847992,135.123749 295.387238,136.047913 294.315033,137.215088 
	C292.508881,139.127167 290.702698,141.039246 288.348022,143.151474 
	C287.860260,143.753769 287.372498,144.356079 286.168823,144.963394 
	C281.192383,150.293930 276.215912,155.624466 271.033997,161.414047 
	C271.002686,161.578461 270.971375,161.742889 270.334167,162.182693 
	C268.542084,163.852295 266.750031,165.521881 264.272095,167.055618 
	C261.859039,169.352509 259.446014,171.649384 256.947723,173.940369 
	C256.947723,173.940369 256.931885,174.024338 256.455109,174.104752 
	C256.141357,174.286392 255.996292,174.558105 255.924622,174.929321 
	C255.924622,174.929321 255.920959,175.024963 255.267151,175.068832 
	C254.863312,175.692719 254.459457,176.316605 253.950302,176.946899 
	C253.950302,176.946899 253.947495,177.052368 253.344849,177.087402 
	C252.652695,177.710968 251.960541,178.334549 250.878906,179.560822 
	C241.624680,186.060226 232.605927,192.933075 223.052094,198.957367 
	C212.837143,205.398529 202.348709,211.501068 191.555893,216.905136 
	C179.796875,222.792999 167.724243,228.155899 155.461502,232.903427 
	C146.090866,236.531250 136.290512,239.153702 126.535561,241.654846 
	C116.749397,244.163986 106.787354,245.991104 96.893120,248.073044 
	C91.825264,249.139420 86.737144,250.109467 81.658188,251.123047 
	C81.718849,251.723846 81.779510,252.324631 81.840164,252.925430 
	C86.294518,252.588394 90.754044,252.308243 95.202263,251.903763 
	C109.444160,250.608795 123.745506,249.735901 137.902985,247.810760 
	C151.621124,245.945358 165.385681,243.748718 178.782211,240.333786 
	C204.752182,233.713776 230.072617,225.056427 253.678436,212.047791 
	C259.472748,208.854691 265.133545,205.419327 271.588654,201.963593 
	C274.408234,199.648773 277.227814,197.333969 280.736237,194.958176 
	C282.172760,193.987366 283.609283,193.016556 285.676605,191.783859 
	C287.456940,190.540085 289.237305,189.296295 291.713776,187.967667 
	C293.821991,186.341599 295.930176,184.715530 298.531769,182.905685 
	C298.699615,182.610565 298.867462,182.315445 299.654510,182.108597 
	C304.785736,178.079376 309.916931,174.050156 314.996338,169.999786 
	C314.996338,169.999786 315.001953,170.055405 315.566437,169.922592 
	C315.765747,169.600906 315.965057,169.279221 316.588654,168.857010 
	C316.857574,168.684235 316.991730,168.438019 317.513031,167.931549 
	C317.697540,167.624969 317.882050,167.318405 318.007782,166.997375 
M124.672966,280.008087 
	C125.148033,279.693359 125.623100,279.378632 126.547531,278.889496 
	C126.830399,278.698578 127.002129,278.435181 127.823875,277.990723 
	C129.212036,276.619415 131.678070,275.335754 131.797913,273.861359 
	C132.264954,268.115417 131.988373,262.309021 131.988373,255.443008 
	C122.602753,256.181976 113.875198,256.869141 105.135681,257.557251 
	C105.135681,259.692810 105.135681,260.839020 105.079765,262.572754 
	C105.132576,262.762238 105.185394,262.951752 105.132179,264.053955 
	C105.092941,274.641296 105.013580,285.228912 105.078407,295.815613 
	C105.084686,296.839844 105.984283,297.858612 106.469193,298.879913 
	C107.004257,297.907379 107.539322,296.934845 108.702583,295.735931 
	C111.490997,292.512329 114.279411,289.288727 117.654213,285.986816 
	C118.039520,285.650940 118.424828,285.315094 118.960297,284.536896 
	C118.960297,284.536896 119.051582,284.078705 119.709007,283.986725 
	C120.829933,283.004272 121.950859,282.021790 123.531296,280.875977 
	C123.817963,280.684906 123.995384,280.420532 124.672966,280.008087 
M231.672501,285.528809 
	C231.756485,267.645905 231.851746,249.763016 231.882309,231.880020 
	C231.883499,231.181885 231.265610,230.482681 230.556213,229.182404 
	C228.424698,229.804337 226.217987,230.243225 224.175568,231.082108 
	C217.778427,233.709625 211.443237,236.487976 204.275085,239.510391 
	C204.244324,248.683823 204.213577,257.857269 204.041046,267.774109 
	C205.062027,269.059296 205.844177,270.702301 207.143936,271.569763 
	C213.982880,276.134155 220.952560,280.502655 228.080231,285.562378 
	C228.478775,285.658936 228.877304,285.755493 229.795212,285.978882 
	C230.143417,285.922974 230.491623,285.867035 231.672501,285.528809 
M297.972534,199.148483 
	C297.739929,196.411270 297.507324,193.674072 297.209747,190.172058 
	C291.942017,193.911957 287.892273,196.907074 283.717896,199.716995 
	C279.568024,202.510437 275.292847,205.117722 270.317627,208.296478 
	C270.224182,232.855911 270.122925,257.415344 270.082947,281.974854 
	C270.081970,282.578979 270.761078,283.184235 271.812500,283.908081 
	C279.734192,279.323700 287.737152,274.869507 295.498718,270.028412 
	C296.812805,269.208771 297.088409,266.724182 297.972198,264.072388 
	C297.929901,242.720123 297.887634,221.367874 297.972534,199.148483 
M238.318207,293.751556 
	C248.241318,304.051544 248.238113,304.047516 258.945404,295.563568 
	C259.709930,294.957764 260.739685,294.617950 261.350342,293.902130 
	C262.359650,292.718994 263.127808,291.330078 264.754059,289.590118 
	C264.835327,265.181183 264.927307,240.772247 264.951355,216.363251 
	C264.952148,215.546585 264.266266,214.729218 263.621796,213.263260 
	C255.113266,217.465851 246.604736,221.668442 237.278015,226.260284 
	C237.178406,247.899765 237.069138,269.539215 237.025925,291.178833 
	C237.024628,291.827606 237.715103,292.477783 238.318207,293.751556 
M303.068085,212.924515 
	C303.113861,230.352371 303.159637,247.780243 303.151031,265.992828 
	C304.484161,266.352051 305.848145,267.106354 307.145355,267.005188 
	C314.502411,266.431488 321.845276,265.670074 329.186432,264.909424 
	C329.725494,264.853577 330.213104,264.300781 330.844666,263.043793 
	C330.844666,229.795670 330.844666,196.547546 330.844666,162.732651 
	C329.518127,163.324356 328.699463,163.689529 327.264099,164.282669 
	C322.054169,168.810043 316.530060,173.032913 311.743683,177.970871 
	C308.504120,181.313065 302.722260,182.747513 302.946259,189.066071 
	C303.216888,196.698822 303.127350,204.344360 303.068085,212.924515 
M363.946533,265.088959 
	C363.964752,227.093018 363.983490,189.097092 364.000824,151.101151 
	C364.004089,143.935257 364.089386,136.767227 363.913208,129.605667 
	C363.884918,128.455322 362.677582,127.333984 361.334473,126.270683 
	C360.140930,127.114479 358.710236,127.756630 357.792908,128.835312 
	C352.459534,135.106628 347.199341,141.442154 342.019104,147.840714 
	C340.218842,150.064407 338.717316,152.529953 336.254547,155.257919 
	C336.210449,190.878372 336.166351,226.498840 335.973145,262.859985 
	C337.104340,263.896759 338.071564,265.487823 339.393768,265.879059 
	C347.109589,268.162231 354.908661,270.164124 363.791718,272.561096 
	C363.791718,270.615784 363.791718,268.322601 363.946533,265.088959 
M395.265900,127.780251 
	C388.295990,122.759598 381.383118,117.655220 374.287506,112.819000 
	C373.348358,112.178909 371.478333,112.904633 369.205200,113.309311 
	C369.138580,113.801514 369.013550,114.293732 369.013641,114.785919 
	C369.024567,167.857132 369.044830,220.928360 368.886810,274.723145 
	C370.226898,276.271820 371.460052,277.930939 372.925903,279.349670 
	C378.676331,284.915314 384.606720,290.299377 390.238922,295.980286 
	C392.216766,297.975250 393.529663,300.629456 395.146179,302.982666 
	C395.593079,302.860535 396.039978,302.738403 396.486877,302.616272 
	C396.612915,300.770905 396.738922,298.925537 396.980316,296.128418 
	C396.993225,241.541946 397.014984,186.955460 396.969086,132.369034 
	C396.967896,130.965210 396.224182,129.562012 395.265900,127.780251 
M315.959167,270.038361 
	C308.002014,272.463776 299.184296,273.460449 292.273590,277.623108 
	C279.367920,285.396820 267.569763,295.009155 254.343674,304.554382 
	C263.172180,312.029327 270.814056,318.613892 278.647888,324.961548 
	C279.462189,325.621368 281.874115,325.428955 282.766449,324.690918 
	C288.439209,319.999329 294.043488,315.201538 299.382355,310.135315 
	C306.463165,303.416138 315.120178,300.342712 324.462463,300.189240 
	C337.301605,299.978363 348.156708,304.603302 356.606842,315.022369 
	C365.900543,326.481445 363.430939,346.881897 350.559448,354.860657 
	C344.908569,358.363495 338.855072,361.997711 332.508087,363.371216 
	C326.481537,364.675323 319.378815,364.442352 313.571320,362.467743 
	C306.018585,359.899811 299.543030,354.680664 293.494781,349.102112 
	C284.202972,340.531921 274.426941,332.484467 264.805481,324.274902 
	C259.605316,319.837860 254.197861,315.640350 249.063354,311.130493 
	C239.589783,302.809387 230.450211,294.096710 220.787308,286.006042 
	C213.217194,279.667664 204.681015,275.011200 194.540527,273.737854 
	C187.185486,272.814270 179.909515,270.164673 172.600815,270.174469 
	C150.771515,270.203705 131.906235,277.907684 117.057152,294.381500 
	C102.866096,310.125214 99.285767,328.518921 105.030815,348.418243 
	C110.369171,366.908844 123.342644,379.125580 140.595398,386.996887 
	C148.292496,390.508545 156.402985,392.056702 164.808762,393.290100 
	C176.507965,395.006775 187.593811,393.155090 198.533005,390.003815 
	C216.772171,384.749573 229.171555,370.794373 243.618011,358.802795 
	C236.117737,352.086914 229.018829,345.490662 221.565292,339.322998 
	C220.485977,338.429901 217.140152,338.876251 215.810455,339.926941 
	C209.966202,344.544952 204.464371,349.597900 198.861526,354.519531 
	C182.084457,369.256683 156.446091,366.805389 142.677628,349.081177 
	C137.050858,341.837860 135.271164,333.526154 137.859131,324.765594 
	C142.679214,308.449127 156.787750,301.057800 172.379822,300.180054 
	C185.433395,299.445251 195.921082,305.743439 205.114166,314.638641 
	C211.505280,320.822662 218.223267,326.677765 224.932617,332.522064 
	C236.850204,342.903107 248.836029,353.206665 260.864624,363.458954 
	C267.456421,369.077301 273.842529,375.034943 280.948486,379.929108 
	C291.553650,387.233429 303.253571,391.704437 316.363770,393.274628 
	C328.030029,394.671875 339.261932,393.805725 350.115356,390.231628 
	C364.677795,385.436188 377.110901,377.569336 386.314545,364.465546 
	C398.979401,346.433746 400.527710,323.068787 389.087097,304.159180 
	C381.792511,292.102325 371.807068,283.515808 359.145050,277.410919 
	C345.644714,270.901855 331.357819,270.215729 315.959167,270.038361 
M170.997116,258.386444 
	C171.033417,265.022614 171.053329,264.699280 177.520737,265.097748 
	C183.365173,265.457794 189.216843,266.355042 194.953125,267.552734 
	C198.050980,268.199585 198.988556,267.184265 199.006760,264.515961 
	C199.052063,257.876709 199.028091,251.236710 198.988815,244.597275 
	C198.970551,241.506653 197.764328,240.520172 194.568817,241.637878 
	C189.974930,243.244644 185.247192,244.504898 180.520050,245.686935 
	C171.001282,248.067154 170.985535,248.004196 170.997116,258.386444 
M152.304184,252.022141 
	C147.673523,252.729614 143.042862,253.437103 138.210831,254.175339 
	C138.210831,260.265411 138.210831,266.007965 138.210831,271.658264 
	C147.233780,269.172729 156.137238,266.720093 165.478516,264.146881 
	C165.478516,259.664612 165.478516,254.986664 165.478516,249.175278 
	C161.387650,250.116028 157.286514,251.059158 152.304184,252.022141 
z"/>
<path fill="#D2D3D5" opacity="1.000000" stroke="none" 
	d="
M316.418518,270.020233 
	C331.357819,270.215729 345.644714,270.901855 359.145050,277.410919 
	C371.807068,283.515808 381.792511,292.102325 389.087097,304.159180 
	C400.527710,323.068787 398.979401,346.433746 386.314545,364.465546 
	C377.110901,377.569336 364.677795,385.436188 350.115356,390.231628 
	C339.261932,393.805725 328.030029,394.671875 316.363770,393.274628 
	C303.253571,391.704437 291.553650,387.233429 280.948486,379.929108 
	C273.842529,375.034943 267.456421,369.077301 260.864624,363.458954 
	C248.836029,353.206665 236.850204,342.903107 224.932617,332.522064 
	C218.223267,326.677765 211.505280,320.822662 205.114166,314.638641 
	C195.921082,305.743439 185.433395,299.445251 172.379822,300.180054 
	C156.787750,301.057800 142.679214,308.449127 137.859131,324.765594 
	C135.271164,333.526154 137.050858,341.837860 142.677628,349.081177 
	C156.446091,366.805389 182.084457,369.256683 198.861526,354.519531 
	C204.464371,349.597900 209.966202,344.544952 215.810455,339.926941 
	C217.140152,338.876251 220.485977,338.429901 221.565292,339.322998 
	C229.018829,345.490662 236.117737,352.086914 243.618011,358.802795 
	C229.171555,370.794373 216.772171,384.749573 198.533005,390.003815 
	C187.593811,393.155090 176.507965,395.006775 164.808762,393.290100 
	C156.402985,392.056702 148.292496,390.508545 140.595398,386.996887 
	C123.342644,379.125580 110.369171,366.908844 105.030815,348.418243 
	C99.285767,328.518921 102.866096,310.125214 117.057152,294.381500 
	C131.906235,277.907684 150.771515,270.203705 172.600815,270.174469 
	C179.909515,270.164673 187.185486,272.814270 194.540527,273.737854 
	C204.681015,275.011200 213.217194,279.667664 220.787308,286.006042 
	C230.450211,294.096710 239.589783,302.809387 249.063354,311.130493 
	C254.197861,315.640350 259.605316,319.837860 264.805481,324.274902 
	C274.426941,332.484467 284.202972,340.531921 293.494781,349.102112 
	C299.543030,354.680664 306.018585,359.899811 313.571320,362.467743 
	C319.378815,364.442352 326.481537,364.675323 332.508087,363.371216 
	C338.855072,361.997711 344.908569,358.363495 350.559448,354.860657 
	C363.430939,346.881897 365.900543,326.481445 356.606842,315.022369 
	C348.156708,304.603302 337.301605,299.978363 324.462463,300.189240 
	C315.120178,300.342712 306.463165,303.416138 299.382355,310.135315 
	C294.043488,315.201538 288.439209,319.999329 282.766449,324.690918 
	C281.874115,325.428955 279.462189,325.621368 278.647888,324.961548 
	C270.814056,318.613892 263.172180,312.029327 254.343674,304.554382 
	C267.569763,295.009155 279.367920,285.396820 292.273590,277.623108 
	C299.184296,273.460449 308.002014,272.463776 316.418518,270.020233 
z"/>
<path fill="#FBB818" opacity="1.000000" stroke="none" 
	d="
M398.833252,78.985626 
	C398.880096,79.748146 398.926971,80.510666 398.670898,81.987869 
	C398.248505,84.514519 397.986938,86.330147 398.033325,88.137863 
	C398.284210,97.911697 398.607544,107.683701 398.915100,117.456039 
	C398.985260,119.684547 399.157410,121.954506 395.946228,122.052391 
	C395.946228,122.052391 395.976471,121.998367 395.862885,121.768692 
	C395.424957,121.350266 395.100616,121.161530 394.776276,120.972778 
	C388.419952,116.403099 381.928833,112.006073 375.763184,107.192162 
	C372.599182,104.721779 370.563751,106.731758 369.158569,108.603065 
	C362.576721,117.368103 356.929474,126.907288 349.774628,135.151276 
	C341.031830,145.224960 331.119019,154.283249 321.171234,164.032791 
	C320.422363,164.551285 320.214417,164.817612 320.006439,165.083939 
	C320.006439,165.083939 320.001617,165.017242 319.685638,165.007751 
	C318.904236,164.995544 318.438843,164.992859 317.725586,164.769287 
	C310.651642,155.751984 303.839111,146.944901 296.968658,138.183228 
	C296.513428,137.602692 295.617462,137.367767 294.926483,136.972076 
	C295.387238,136.047913 295.847992,135.123749 296.928711,134.024231 
	C298.016388,133.204849 298.484070,132.560791 298.951721,131.916733 
	C300.122925,129.955139 301.180115,127.914009 302.483948,126.044937 
	C310.630463,114.366982 318.847839,102.738441 327.005310,91.068077 
	C329.284241,87.807732 331.440430,84.461586 333.632812,81.184937 
	C323.873230,76.874809 314.909882,72.916321 305.946564,68.957825 
	C305.834503,68.448853 305.722443,67.939873 305.610382,67.430893 
	C333.376038,51.841640 361.890045,37.635765 390.927856,22.990372 
	C392.936951,22.866835 394.197083,22.766638 395.645569,22.651466 
	C395.778046,23.740736 395.945099,24.542828 395.963318,25.348282 
	C396.328888,41.521511 396.626556,57.696629 397.103302,73.866486 
	C397.154083,75.588371 398.231873,77.279976 398.833252,78.985626 
z"/>
<path fill="#3DB34C" opacity="1.000000" stroke="none" 
	d="
M370.039429,112.997803 
	C371.478333,112.904633 373.348358,112.178909 374.287506,112.819000 
	C381.383118,117.655220 388.295990,122.759598 395.576294,128.425186 
	C395.915131,183.152573 395.934479,237.235062 396.009583,291.317444 
	C396.012238,293.238770 396.567322,295.159271 396.864929,297.080170 
	C396.738922,298.925537 396.612915,300.770905 396.486877,302.616272 
	C396.039978,302.738403 395.593079,302.860535 395.146179,302.982666 
	C393.529663,300.629456 392.216766,297.975250 390.238922,295.980286 
	C384.606720,290.299377 378.676331,284.915314 372.925903,279.349670 
	C371.460052,277.930939 370.226898,276.271820 369.356903,274.153687 
	C369.898132,272.426056 370.031250,271.267914 370.031494,270.109741 
	C370.041443,217.739090 370.039764,165.368454 370.039429,112.997803 
z"/>
<path fill="#3DB34C" opacity="1.000000" stroke="none" 
	d="
M337.079376,154.885040 
	C338.717316,152.529953 340.218842,150.064407 342.019104,147.840714 
	C347.199341,141.442154 352.459534,135.106628 357.792908,128.835312 
	C358.710236,127.756630 360.140930,127.114479 361.875336,126.589996 
	C362.604279,130.376175 362.952332,133.842865 362.956085,137.309921 
	C363.000702,178.447327 362.984100,219.584793 363.034088,260.722198 
	C363.036224,262.491577 363.528046,264.260376 363.791718,266.029449 
	C363.791718,268.322601 363.791718,270.615784 363.791718,272.561096 
	C354.908661,270.164124 347.109589,268.162231 339.393768,265.879059 
	C338.071564,265.487823 337.104340,263.896759 336.359680,262.186188 
	C336.859222,259.698456 337.069794,257.884583 337.070740,256.070587 
	C337.088531,222.342072 337.081329,188.613571 337.079376,154.885040 
z"/>
<path fill="#E22129" opacity="1.000000" stroke="none" 
	d="
M270.855713,202.095322 
	C265.133545,205.419327 259.472748,208.854691 253.678436,212.047791 
	C230.072617,225.056427 204.752182,233.713776 178.782211,240.333786 
	C165.385681,243.748718 151.621124,245.945358 137.902985,247.810760 
	C123.745506,249.735901 109.444160,250.608795 95.202263,251.903763 
	C90.754044,252.308243 86.294518,252.588394 81.840164,252.925430 
	C81.779510,252.324631 81.718849,251.723846 81.658188,251.123047 
	C86.737144,250.109467 91.825264,249.139420 96.893120,248.073044 
	C106.787354,245.991104 116.749397,244.163986 126.535561,241.654846 
	C136.290512,239.153702 146.090866,236.531250 155.461502,232.903427 
	C167.724243,228.155899 179.796875,222.792999 191.555893,216.905136 
	C202.348709,211.501068 212.837143,205.398529 223.052094,198.957367 
	C232.605927,192.933075 241.624680,186.060226 251.414673,179.251282 
	C252.632172,178.923325 253.313904,178.904922 254.047760,179.240555 
	C259.685150,187.094833 265.270416,194.595078 270.855713,202.095322 
z"/>
<path fill="#3DB34C" opacity="1.000000" stroke="none" 
	d="
M330.724640,263.979004 
	C330.213104,264.300781 329.725494,264.853577 329.186432,264.909424 
	C321.845276,265.670074 314.502411,266.431488 307.145355,267.005188 
	C305.848145,267.106354 304.484161,266.352051 303.465363,265.270660 
	C303.846252,247.786865 303.923187,231.025238 303.945648,214.263550 
	C303.946686,213.504166 303.455566,212.744110 303.193665,211.984360 
	C303.127350,204.344360 303.216888,196.698822 302.946259,189.066071 
	C302.722260,182.747513 308.504120,181.313065 311.743683,177.970871 
	C316.530060,173.032913 322.054169,168.810043 327.984009,164.235077 
	C329.158539,165.992554 330.004150,167.796494 330.009399,169.602859 
	C330.094635,198.929688 330.059814,228.256866 330.103943,257.583893 
	C330.107147,259.715881 330.508453,261.847321 330.724640,263.979004 
z"/>
<path fill="#3EB24D" opacity="1.000000" stroke="none" 
	d="
M238.096222,225.871033 
	C246.604736,221.668442 255.113266,217.465851 263.773132,214.064758 
	C263.948853,239.920120 263.973206,264.973999 263.997559,290.027893 
	C263.127808,291.330078 262.359650,292.718994 261.350342,293.902130 
	C260.739685,294.617950 259.709930,294.957764 258.945404,295.563568 
	C248.238113,304.047516 248.241318,304.051544 238.210907,292.960541 
	C238.101151,270.070038 238.098679,247.970535 238.096222,225.871033 
z"/>
<path fill="#3DB34C" opacity="1.000000" stroke="none" 
	d="
M297.843781,265.008820 
	C297.088409,266.724182 296.812805,269.208771 295.498718,270.028412 
	C287.737152,274.869507 279.734192,279.323700 271.440063,283.395752 
	C271.069305,257.857819 271.070953,232.832230 271.072601,207.806641 
	C275.292847,205.117722 279.568024,202.510437 283.717896,199.716995 
	C287.892273,196.907074 291.942017,193.911957 297.209747,190.172058 
	C297.507324,193.674072 297.739929,196.411270 297.642944,199.903931 
	C297.164917,201.468414 296.886902,202.277481 296.886963,203.086517 
	C296.888428,222.478256 296.903168,241.870071 296.983795,261.261597 
	C296.989014,262.511841 297.544342,263.759796 297.843781,265.008820 
z"/>
<path fill="#3EB24D" opacity="1.000000" stroke="none" 
	d="
M205.084030,239.207886 
	C211.443237,236.487976 217.778427,233.709625 224.175568,231.082108 
	C226.217987,230.243225 228.424698,229.804337 230.757843,229.972198 
	C230.919586,249.111694 230.879700,267.461395 230.839813,285.811096 
	C230.491623,285.867035 230.143417,285.922974 229.362762,285.680603 
	C228.579163,285.234619 228.228012,285.086884 227.876877,284.939148 
	C220.952560,280.502655 213.982880,276.134155 207.143936,271.569763 
	C205.844177,270.702301 205.062027,269.059296 204.361542,267.063843 
	C204.816025,257.305023 204.950027,248.256454 205.084030,239.207886 
z"/>
<path fill="#3DB34C" opacity="1.000000" stroke="none" 
	d="
M105.238220,263.141266 
	C105.185394,262.951752 105.132576,262.762238 105.416229,262.117310 
	C112.604134,256.473694 120.875053,258.301025 128.542053,257.242462 
	C129.188126,257.153229 130.822830,259.407227 130.871155,260.617615 
	C131.115173,266.729950 131.222397,272.910187 127.062737,278.099365 
	C127.002129,278.435181 126.830399,278.698578 126.020805,278.994293 
	C125.017250,279.427002 124.540421,279.754944 124.063583,280.082886 
	C123.995384,280.420532 123.817963,280.684906 122.933701,280.955200 
	C121.241264,282.049194 120.146416,283.063934 119.051575,284.078705 
	C119.051582,284.078705 118.960297,284.536896 118.617706,284.806641 
	C117.872696,285.405975 117.470261,285.735565 117.067825,286.065155 
	C114.279411,289.288727 111.490997,292.512329 108.032394,295.669922 
	C106.911057,293.608704 106.149307,291.626923 106.062378,289.615967 
	C105.681084,280.795654 105.495064,271.966949 105.238220,263.141266 
z"/>
<path fill="#41B04F" opacity="1.000000" stroke="none" 
	d="
M170.995117,257.920441 
	C170.985535,248.004196 171.001282,248.067154 180.520050,245.686935 
	C185.247192,244.504898 189.974930,243.244644 194.568817,241.637878 
	C197.764328,240.520172 198.970551,241.506653 198.988815,244.597275 
	C199.028091,251.236710 199.052063,257.876709 199.006760,264.515961 
	C198.988556,267.184265 198.050980,268.199585 194.953125,267.552734 
	C189.216843,266.355042 183.365173,265.457794 177.520737,265.097748 
	C171.053329,264.699280 171.033417,265.022614 170.995117,257.920441 
z"/>
<path fill="#F7911E" opacity="1.000000" stroke="none" 
	d="
M271.239471,160.955002 
	C276.215912,155.624466 281.192383,150.293930 286.560486,145.371567 
	C286.675385,149.158630 288.296234,151.182373 290.670135,153.709045 
	C296.339752,159.743622 301.057526,166.672546 306.124664,173.585022 
	C303.738251,176.626587 301.386780,179.323456 299.035339,182.020325 
	C298.867462,182.315445 298.699615,182.610565 298.128418,182.699005 
	C295.651672,181.539062 292.935669,181.115692 291.628601,179.530548 
	C288.087097,175.235550 284.569977,170.730881 282.121765,165.776367 
	C279.589844,160.652405 276.968384,157.873245 271.239471,160.955002 
z"/>
<path fill="#41B04F" opacity="1.000000" stroke="none" 
	d="
M152.744781,252.012207 
	C157.286514,251.059158 161.387650,250.116028 165.478516,249.175278 
	C165.478516,254.986664 165.478516,259.664612 165.478516,264.146881 
	C156.137238,266.720093 147.233780,269.172729 138.210831,271.658264 
	C138.210831,266.007965 138.210831,260.265411 138.210831,254.175339 
	C143.042862,253.437103 147.673523,252.729614 152.744781,252.012207 
z"/>
<path fill="#ED4A24" opacity="1.000000" stroke="none" 
	d="
M271.222168,202.029449 
	C265.270416,194.595078 259.685150,187.094833 254.041763,178.936218 
	C253.971619,177.869339 253.959564,177.460861 253.947510,177.052368 
	C253.947495,177.052368 253.950302,176.946899 254.298889,176.894501 
	C255.071960,176.236389 255.496460,175.630676 255.920959,175.024963 
	C255.920959,175.024963 255.924622,174.929321 256.167938,174.824417 
	C256.655975,174.541107 256.829498,174.309372 256.931885,174.024338 
	C256.931885,174.024338 256.947723,173.940369 257.365356,173.970947 
	C259.206299,174.431290 261.325958,174.411636 261.940308,175.363525 
	C266.027588,181.696686 273.925049,184.831329 276.287354,192.653000 
	C276.610413,193.722702 278.749268,194.243988 280.047424,195.019165 
	C277.227814,197.333969 274.408234,199.648773 271.222168,202.029449 
z"/>
<path fill="#FAAC1B" opacity="1.000000" stroke="none" 
	d="
M294.620758,137.093582 
	C295.617462,137.367767 296.513428,137.602692 296.968658,138.183228 
	C303.839111,146.944901 310.651642,155.751984 317.737915,165.113464 
	C318.007812,166.137238 318.017548,166.595978 318.027283,167.054703 
	C318.027252,167.054703 318.007782,166.997375 317.812378,167.140778 
	C317.408356,167.562241 317.199738,167.840317 316.991119,168.118378 
	C316.991730,168.438019 316.857574,168.684235 316.110840,169.006165 
	C315.422668,169.455353 315.212311,169.755386 315.001953,170.055405 
	C315.001953,170.055405 314.996338,169.999786 314.645264,169.993073 
	C313.540771,170.003265 312.787323,170.020172 311.882019,169.704956 
	C311.069733,167.696503 310.750641,165.755249 309.690399,164.389236 
	C304.845551,158.147003 299.929932,151.945816 294.721069,146.009506 
	C293.371155,144.471024 290.869263,143.943298 288.896515,142.951309 
	C290.702698,141.039246 292.508881,139.127167 294.620758,137.093582 
z"/>
<path fill="#F89F1C" opacity="1.000000" stroke="none" 
	d="
M288.622253,143.051392 
	C290.869263,143.943298 293.371155,144.471024 294.721069,146.009506 
	C299.929932,151.945816 304.845551,158.147003 309.690399,164.389236 
	C310.750641,165.755249 311.069733,167.696503 311.726807,169.981949 
	C309.868835,171.474167 308.014252,172.357269 306.159637,173.240356 
	C301.057526,166.672546 296.339752,159.743622 290.670135,153.709045 
	C288.296234,151.182373 286.675385,149.158630 286.918457,145.369064 
	C287.372498,144.356079 287.860260,143.753769 288.622253,143.051392 
z"/>
<path fill="#F16922" opacity="1.000000" stroke="none" 
	d="
M291.017639,188.052521 
	C289.237305,189.296295 287.456940,190.540085 285.022247,191.825745 
	C278.747864,183.836349 273.633514,175.366699 264.969879,170.000610 
	C264.547852,169.739212 264.943237,168.158066 264.957947,167.191483 
	C266.750031,165.521881 268.542084,163.852295 270.789124,162.376099 
	C272.537811,164.592865 273.664734,166.749527 275.155518,168.615463 
	C280.375122,175.148636 285.720215,181.581528 291.017639,188.052521 
z"/>
<path fill="#F47722" opacity="1.000000" stroke="none" 
	d="
M291.365723,188.010101 
	C285.720215,181.581528 280.375122,175.148636 275.155518,168.615463 
	C273.664734,166.749527 272.537811,164.592865 271.092041,162.238419 
	C270.971375,161.742889 271.002686,161.578461 271.136719,161.184525 
	C276.968384,157.873245 279.589844,160.652405 282.121765,165.776367 
	C284.569977,170.730881 288.087097,175.235550 291.628601,179.530548 
	C292.935669,181.115692 295.651672,181.539062 297.881714,182.790894 
	C295.930176,184.715530 293.821991,186.341599 291.365723,188.010101 
z"/>
<path fill="#EF5824" opacity="1.000000" stroke="none" 
	d="
M264.615051,167.123550 
	C264.943237,168.158066 264.547852,169.739212 264.969879,170.000610 
	C273.633514,175.366699 278.747864,183.836349 284.706848,191.956696 
	C283.609283,193.016556 282.172760,193.987366 280.391846,194.988678 
	C278.749268,194.243988 276.610413,193.722702 276.287354,192.653000 
	C273.925049,184.831329 266.027588,181.696686 261.940308,175.363525 
	C261.325958,174.411636 259.206299,174.431290 257.407959,173.973892 
	C259.446014,171.649384 261.859039,169.352509 264.615051,167.123550 
z"/>
<path fill="#80BF83" opacity="1.000000" stroke="none" 
	d="
M396.922607,296.604309 
	C396.567322,295.159271 396.012238,293.238770 396.009583,291.317444 
	C395.934479,237.235062 395.915131,183.152573 395.856720,128.614319 
	C396.224182,129.562012 396.967896,130.965210 396.969086,132.369034 
	C397.014984,186.955460 396.993225,241.541946 396.922607,296.604309 
z"/>
<path fill="#FFFFFF" opacity="1.000000" stroke="none" 
	d="
M369.622314,113.153557 
	C370.039764,165.368454 370.041443,217.739090 370.031494,270.109741 
	C370.031250,271.267914 369.898132,272.426056 369.445801,273.791901 
	C369.044830,220.928360 369.024567,167.857132 369.013641,114.785919 
	C369.013550,114.293732 369.138580,113.801514 369.622314,113.153557 
z"/>
<path fill="#A6D9B2" opacity="1.000000" stroke="none" 
	d="
M363.869141,265.559204 
	C363.528046,264.260376 363.036224,262.491577 363.034088,260.722198 
	C362.984100,219.584793 363.000702,178.447327 362.956085,137.309921 
	C362.952332,133.842865 362.604279,130.376175 362.215729,126.554276 
	C362.677582,127.333984 363.884918,128.455322 363.913208,129.605667 
	C364.089386,136.767227 364.004089,143.935257 364.000824,151.101151 
	C363.983490,189.097092 363.964752,227.093018 363.869141,265.559204 
z"/>
<path fill="#B0FFB0" opacity="1.000000" stroke="none" 
	d="
M336.666962,155.071487 
	C337.081329,188.613571 337.088531,222.342072 337.070740,256.070587 
	C337.069794,257.884583 336.859222,259.698456 336.434265,261.815857 
	C336.166351,226.498840 336.210449,190.878372 336.666962,155.071487 
z"/>
<path fill="#E9BB4B" opacity="1.000000" stroke="none" 
	d="
M398.907227,78.527832 
	C398.231873,77.279976 397.154083,75.588371 397.103302,73.866486 
	C396.626556,57.696629 396.328888,41.521511 395.963318,25.348282 
	C395.945099,24.542828 395.778046,23.740736 395.645569,22.651466 
	C394.197083,22.766638 392.936951,22.866835 391.294067,22.954817 
	C392.817963,22.032770 394.724609,21.122942 396.631226,20.213114 
	C397.084991,22.032312 397.908417,23.846859 397.931366,25.671478 
	C398.060455,35.927723 397.876251,46.188320 398.039886,56.443584 
	C398.154968,63.655575 398.653778,70.861435 398.907227,78.527832 
z"/>
<path fill="#80BF83" opacity="1.000000" stroke="none" 
	d="
M330.784668,263.511414 
	C330.508453,261.847321 330.107147,259.715881 330.103943,257.583893 
	C330.059814,228.256866 330.094635,198.929688 330.009399,169.602859 
	C330.004150,167.796494 329.158539,165.992554 328.292358,164.121094 
	C328.699463,163.689529 329.518127,163.324356 330.844666,162.732651 
	C330.844666,196.547546 330.844666,229.795670 330.784668,263.511414 
z"/>
<path fill="#41B04F" opacity="1.000000" stroke="none" 
	d="
M127.443306,278.045044 
	C131.222397,272.910187 131.115173,266.729950 130.871155,260.617615 
	C130.822830,259.407227 129.188126,257.153229 128.542053,257.242462 
	C120.875053,258.301025 112.604134,256.473694 105.444183,261.823547 
	C105.135681,260.839020 105.135681,259.692810 105.135681,257.557251 
	C113.875198,256.869141 122.602753,256.181976 131.988373,255.443008 
	C131.988373,262.309021 132.264954,268.115417 131.797913,273.861359 
	C131.678070,275.335754 129.212036,276.619415 127.443306,278.045044 
z"/>
<path fill="#80BF83" opacity="1.000000" stroke="none" 
	d="
M270.695129,208.051559 
	C271.070953,232.832230 271.069305,257.857819 271.095337,283.336182 
	C270.761078,283.184235 270.081970,282.578979 270.082947,281.974854 
	C270.122925,257.415344 270.224182,232.855911 270.695129,208.051559 
z"/>
<path fill="#B0FFB0" opacity="1.000000" stroke="none" 
	d="
M264.375793,289.809021 
	C263.973206,264.973999 263.948853,239.920120 263.912476,214.389206 
	C264.266266,214.729218 264.952148,215.546585 264.951355,216.363251 
	C264.927307,240.772247 264.835327,265.181183 264.375793,289.809021 
z"/>
<path fill="#A6D9B2" opacity="1.000000" stroke="none" 
	d="
M237.687119,226.065659 
	C238.098679,247.970535 238.101151,270.070038 238.093338,292.648407 
	C237.715103,292.477783 237.024628,291.827606 237.025925,291.178833 
	C237.069138,269.539215 237.178406,247.899765 237.687119,226.065659 
z"/>
<path fill="#E9BB4B" opacity="1.000000" stroke="none" 
	d="
M396.063232,122.401993 
	C399.157410,121.954506 398.985260,119.684547 398.915100,117.456039 
	C398.607544,107.683701 398.284210,97.911697 398.033325,88.137863 
	C397.986938,86.330147 398.248505,84.514519 398.601044,82.364799 
	C399.223846,83.073280 399.946503,84.117554 399.952667,85.166023 
	C400.029785,98.300171 400.003265,111.434914 400.003265,125.726357 
	C398.260132,124.370003 397.220154,123.560799 396.063232,122.401993 
z"/>
<path fill="#80BF83" opacity="1.000000" stroke="none" 
	d="
M297.907990,264.540588 
	C297.544342,263.759796 296.989014,262.511841 296.983795,261.261597 
	C296.903168,241.870071 296.888428,222.478256 296.886963,203.086517 
	C296.886902,202.277481 297.164917,201.468414 297.579346,200.337494 
	C297.887634,221.367874 297.929901,242.720123 297.907990,264.540588 
z"/>
<path fill="#80BF83" opacity="1.000000" stroke="none" 
	d="
M231.256165,285.669952 
	C230.879700,267.461395 230.919586,249.111694 230.947815,230.272980 
	C231.265610,230.482681 231.883499,231.181885 231.882309,231.880020 
	C231.851746,249.763016 231.756485,267.645905 231.256165,285.669952 
z"/>
<path fill="#A6D9B2" opacity="1.000000" stroke="none" 
	d="
M303.130859,212.454437 
	C303.455566,212.744110 303.946686,213.504166 303.945648,214.263550 
	C303.923187,231.025238 303.846252,247.786865 303.492554,264.878296 
	C303.159637,247.780243 303.113861,230.352371 303.130859,212.454437 
z"/>
<path fill="#E9BB4B" opacity="1.000000" stroke="none" 
	d="
M306.124664,173.585052 
	C308.014252,172.357269 309.868835,171.474167 311.878662,170.314087 
	C312.787323,170.020172 313.540771,170.003265 314.671173,170.003632 
	C309.916931,174.050156 304.785736,178.079376 299.344910,182.064453 
	C301.386780,179.323456 303.738251,176.626587 306.124664,173.585052 
z"/>
<path fill="#80BF83" opacity="1.000000" stroke="none" 
	d="
M105.185196,263.597595 
	C105.495064,271.966949 105.681084,280.795654 106.062378,289.615967 
	C106.149307,291.626923 106.911057,293.608704 107.718292,295.783112 
	C107.539322,296.934845 107.004257,297.907379 106.469193,298.879913 
	C105.984283,297.858612 105.084686,296.839844 105.078407,295.815613 
	C105.013580,285.228912 105.092941,274.641296 105.185196,263.597595 
z"/>
<path fill="#80BF83" opacity="1.000000" stroke="none" 
	d="
M204.679565,239.359131 
	C204.950027,248.256454 204.816025,257.305023 204.432434,266.692139 
	C204.213577,257.857269 204.244324,248.683823 204.679565,239.359131 
z"/>
<path fill="#41B04F" opacity="1.000000" stroke="none" 
	d="
M119.380295,284.032715 
	C120.146416,283.063934 121.241264,282.049194 122.703949,281.036865 
	C121.950859,282.021790 120.829933,283.004272 119.380295,284.032715 
z"/>
<path fill="#EF5824" opacity="1.000000" stroke="none" 
	d="
M253.646179,177.069885 
	C253.959564,177.460861 253.971619,177.869339 253.989655,178.582184 
	C253.313904,178.904922 252.632172,178.923325 251.609406,178.949921 
	C251.960541,178.334549 252.652695,177.710968 253.646179,177.069885 
z"/>
<path fill="#EF5824" opacity="1.000000" stroke="none" 
	d="
M255.594055,175.046906 
	C255.496460,175.630676 255.071960,176.236389 254.351532,176.891296 
	C254.459457,176.316605 254.863312,175.692719 255.594055,175.046906 
z"/>
<path fill="#FAAC1B" opacity="1.000000" stroke="none" 
	d="
M298.670776,132.019135 
	C298.484070,132.560791 298.016388,133.204849 297.228333,133.898590 
	C297.401947,133.339371 297.895905,132.730438 298.670776,132.019135 
z"/>
<path fill="#E9BB4B" opacity="1.000000" stroke="none" 
	d="
M318.307800,166.951782 
	C318.017548,166.595978 318.007812,166.137238 317.985748,165.334335 
	C318.438843,164.992859 318.904236,164.995544 319.718231,165.015198 
	C319.573975,165.637726 319.081146,166.243286 318.307800,166.951782 
z"/>
<path fill="#41B04F" opacity="1.000000" stroke="none" 
	d="
M124.368279,280.045471 
	C124.540421,279.754944 125.017250,279.427002 125.796127,279.081482 
	C125.623100,279.378632 125.148033,279.693359 124.368279,280.045471 
z"/>
<path fill="#41B04F" opacity="1.000000" stroke="none" 
	d="
M117.361023,286.026001 
	C117.470261,285.735565 117.872696,285.405975 118.542633,285.027832 
	C118.424828,285.315094 118.039520,285.650940 117.361023,286.026001 
z"/>
<path fill="#EF5824" opacity="1.000000" stroke="none" 
	d="
M256.693481,174.064545 
	C256.829498,174.309372 256.655975,174.541107 256.215576,174.819702 
	C255.996292,174.558105 256.141357,174.286392 256.693481,174.064545 
z"/>
<path fill="#E9BB4B" opacity="1.000000" stroke="none" 
	d="
M394.895721,121.237625 
	C395.100616,121.161530 395.424957,121.350266 395.865265,121.799515 
	C395.659210,121.874176 395.337189,121.688316 394.895721,121.237625 
z"/>
<path fill="#E9BB4B" opacity="1.000000" stroke="none" 
	d="
M315.284180,169.988998 
	C315.212311,169.755386 315.422668,169.455353 315.898682,169.056427 
	C315.965057,169.279221 315.765747,169.600906 315.284180,169.988998 
z"/>
<path fill="#E9BB4B" opacity="1.000000" stroke="none" 
	d="
M317.252075,168.024963 
	C317.199738,167.840317 317.408356,167.562241 317.841736,167.147995 
	C317.882050,167.318405 317.697540,167.624969 317.252075,168.024963 
z"/>
<path fill="#80BF83" opacity="1.000000" stroke="none" 
	d="
M227.978546,285.250763 
	C228.228012,285.086884 228.579163,285.234619 229.103058,285.617188 
	C228.877304,285.755493 228.478775,285.658936 227.978546,285.250763 
z"/>
<path fill="#E9BB4B" opacity="1.000000" stroke="none" 
	d="
M320.263489,165.004562 
	C320.214417,164.817612 320.422363,164.551285 320.855286,164.164276 
	C320.893677,164.337463 320.707123,164.631317 320.263489,165.004562 
z"/>
</svg>